<?xml version="1.0" encoding="UTF-8"?>
<svg xmlns="http://www.w3.org/2000/svg" viewBox="0 0 16 20">
  <defs>
    <style>
      .cls-1 {
        fill: #f0ebe5;
      }

      .cls-1, .cls-2 {
        stroke-width: 0px;
      }

      .cls-2 {
        fill: #d56f47;
      }
    </style>
  </defs>
  <g id="Calque_1" data-name="Calque 1">
    <path class="cls-2" d="M8,17.35c2.03-1.87,3.54-3.56,4.53-5.09s1.48-2.88,1.48-4.06c0-1.82-.58-3.3-1.74-4.46s-2.58-1.74-4.26-1.74-3.1.58-4.26,1.74-1.74,2.65-1.74,4.46c0,1.18.49,2.54,1.48,4.06s2.49,3.22,4.53,5.09ZM8,20c-2.68-2.28-4.69-4.4-6.01-6.36s-1.99-3.77-1.99-5.44C0,5.7.8,3.71,2.41,2.23,4.02.74,5.88,0,8,0s3.98.74,5.59,2.23,2.41,3.48,2.41,5.98c0,1.67-.66,3.48-1.99,5.44s-3.33,4.08-6.01,6.36Z"/>
  </g>
  <g id="Calque_2" data-name="Calque 2">
    <path class="cls-1" d="M8,13c.93,0,1.78-.23,2.53-.69s1.34-1.06,1.78-1.81c-.58-.48-1.24-.85-1.98-1.11-.73-.26-1.51-.39-2.33-.39s-1.59.13-2.33.39c-.73.26-1.39.63-1.98,1.11.43.75,1.03,1.35,1.78,1.81s1.59.69,2.53.69Z"/>
    <path class="cls-1" d="M8,8c.55,0,1.02-.2,1.41-.59s.59-.86.59-1.41-.2-1.02-.59-1.41-.86-.59-1.41-.59-1.02.2-1.41.59-.59.86-.59,1.41.2,1.02.59,1.41.86.59,1.41.59Z"/>
  </g>
</svg>