<?xml version="1.0" encoding="UTF-8"?>
<svg xmlns="http://www.w3.org/2000/svg" version="1.1" viewBox="0 0 16 20">
  <defs>
    <style>
      .cls-1 {
        fill: #19eca1;
        stroke-width: 0px;
      }
    </style>
  </defs>
  <g id="Calque_1" data-name="Calque 1">
    <path class="cls-1" d="M8,17.4c2-1.9,3.5-3.6,4.5-5.1s1.5-2.9,1.5-4.1c0-1.8-.6-3.3-1.7-4.5s-2.6-1.7-4.3-1.7-3.1.6-4.3,1.7-1.7,2.6-1.7,4.5.5,2.5,1.5,4.1,2.5,3.2,4.5,5.1ZM8,20c-2.7-2.3-4.7-4.4-6-6.4s-2-3.8-2-5.4C0,5.7.8,3.7,2.4,2.2,4,.7,5.9,0,8,0s4,.7,5.6,2.2,2.4,3.5,2.4,6-.7,3.5-2,5.4-3.3,4.1-6,6.4Z"/>
  </g>
  <g id="Calque_2" data-name="Calque 2">
    <path class="cls-1" d="M8,13c.9,0,1.8-.2,2.5-.7s1.3-1.1,1.8-1.8c-.6-.5-1.2-.9-2-1.1-.7-.3-1.5-.4-2.3-.4s-1.6.1-2.3.4c-.7.3-1.4.6-2,1.1.4.8,1,1.4,1.8,1.8s1.6.7,2.5.7Z"/>
    <path class="cls-1" d="M8,8c.6,0,1-.2,1.4-.6s.6-.9.6-1.4-.2-1-.6-1.4-.9-.6-1.4-.6-1,.2-1.4.6-.6.9-.6,1.4.2,1,.6,1.4.9.6,1.4.6Z"/>
  </g>
</svg>